<svg xmlns="http://www.w3.org/2000/svg" fill="none" viewBox="0 0 520 441">
  <path fill="#111" d="M0 0h520v440.922H0z" />
  <path
    fill="#DADADF"
    d="M289.2 72v151.6c0 14.933.8 26.4 2.4 34.4 1.867 7.733 5.467 16.667 10.8 26.8 5.333 9.867 8.933 14.8 10.8 14.8 2.133 0 5.867-4.933 11.2-14.8 5.333-10.133 8.933-19.067 10.8-26.8 1.867-8 2.8-19.467 2.8-34.4v-42.8c0-22.4-1.6-38-4.8-46.8-2.933-9.067-9.333-20.133-19.2-33.2l48-33.6c8.533 5.867 15.867 16.8 22 32.8 6.133 16 9.2 35.2 9.2 57.6v66c0 20.8-2 38-6 51.6-4 13.333-15.067 30.267-33.2 50.8-17.867 20.533-31.333 30.8-40.4 30.8-5.6 0-13.467-5.067-23.6-15.2-9.867-10.133-19.333-22-28.4-35.6-9.6 13.867-19.333 25.867-29.2 36-9.6 9.867-17.2 14.8-22.8 14.8-9.067 0-22.667-10.267-40.8-30.8-17.867-20.533-28.8-37.467-32.8-50.8-4-13.6-6-30.8-6-51.6V72h55.2v151.6c0 17.333.933 29.333 2.8 36 1.867 6.667 5.467 15.067 10.8 25.2 5.333 9.867 8.933 14.8 10.8 14.8 2.133 0 5.867-4.933 11.2-14.8 5.333-10.133 8.8-19.067 10.4-26.8 1.867-8 2.8-19.467 2.8-34.4V72h55.2Z"
  />
</svg>
